# xmcd CD database file
#
# Track frame offsets:
#	150
#	28880
#	46912
#	79942
#	113972
#	166012
#	187260
#	209685
#	232880
#	249325
#	283802
#
# Disc length: 4068 seconds
#
# Revision: 0
# Processed by: cddbd v1.5.1PL0 Copyright (c) Steve Scherf et al.
# Submitted via: CDex 1.51
#
DISCID=9a0fe20b
DTITLE=Yngwie J. Malmsteen - A Sign Of Trilogy
DYEAR=1985
DGENRE=Heavy Metal
TTITLE0=I'll See The Light, Tonight
TTITLE1=On The Run Again
TTITLE2=Far Beyond The Sun
TTITLE3=Don't Let It End
TTITLE4=Anguish And Fear
TTITLE5=Black Star
TTITLE6=Caught In The Middle
TTITLE7=I'll See The Light, Tonight
TTITLE8=On The Run Again
TTITLE9=Far Beyond The Sun
TTITLE10=Don't Let It End
EXTD=YEAR: 1985
EXTT0=
EXTT1=
EXTT2=
EXTT3=
EXTT4=
EXTT5=
EXTT6=
EXTT7=
EXTT8=
EXTT9=
EXTT10=
PLAYORDER=
